<?xml version="1.0" encoding="UTF-8"?>
<svg version="1.1" xmlns="http://www.w3.org/2000/svg" width="375" height="283">
<path d="M0 0 C2.44298606 1.30577892 4.80272746 2.70396152 7.16455078 4.15136719 C9.02501202 5.25329419 10.88569952 6.35483926 12.74658203 7.45605469 C13.72062988 8.03967773 14.69467773 8.62330078 15.69824219 9.22460938 C19.81047569 11.6708679 23.96254089 14.04497622 28.11499023 16.42211914 C39.61520667 23.00965545 51.03844951 29.7236185 62.41772461 36.51733398 C67.02160512 39.26116379 71.61819267 42.00056592 76.32470703 44.56542969 C77.2939209 45.09632202 77.2939209 45.09632202 78.28271484 45.63793945 C79.85734928 46.49024645 81.44199156 47.32400281 83.02783203 48.15527344 C87.25304757 51.08418551 91.06783777 54.21218702 92.28423119 59.40497017 C92.49920808 62.22673729 92.52659788 64.99371989 92.48754883 67.82348633 C92.50091026 69.41990211 92.50091026 69.41990211 92.51454163 71.04856873 C92.53578757 74.5535175 92.51353677 78.05662048 92.48876953 81.56152344 C92.49027232 84.0033741 92.49370325 86.44522427 92.49897766 88.8870697 C92.50330636 93.99893243 92.48648915 99.11016372 92.4543457 104.22192383 C92.41454499 110.77153316 92.42387502 117.31995996 92.44858074 123.86960697 C92.46276716 128.90972068 92.45267453 133.94955845 92.43506813 138.98965263 C92.42922178 141.40455911 92.43051554 143.81949385 92.43909264 146.23439217 C92.44708966 149.60978025 92.42282709 152.98343843 92.38989258 156.35864258 C92.40271774 157.85266098 92.40271774 157.85266098 92.415802 159.37686157 C92.34090695 163.82735481 92.22823064 167.01285512 89.3697052 170.56028748 C86.58946783 173.15475723 83.87670439 175.09536752 80.60205078 177.02636719 C79.56822266 177.64511719 78.53439453 178.26386719 77.46923828 178.90136719 C74.52279437 180.59760454 71.53965475 182.22174961 68.55126953 183.84277344 C62.52879056 187.11425615 56.59370111 190.5268043 50.66455078 193.96386719 C48.96086984 194.9490617 47.25718767 195.9342541 45.55343628 196.91932678 C43.79254418 197.93766312 42.03198308 198.95656969 40.27148438 199.97558594 C36.76447923 202.005176 33.25578873 204.03183661 29.74658203 206.05761719 C28.61945801 206.70859375 27.49233398 207.35957031 26.33105469 208.03027344 C24.11241143 209.30932822 21.89205699 210.58541981 19.66992188 211.85839844 C15.19487151 214.42459769 10.73387813 216.99064177 6.37158203 219.74511719 C0.62376753 223.34691032 -4.49628125 226.40898395 -11.47998047 225.78417969 C-16.87311691 224.32086714 -21.38885235 221.36674053 -26.0625 218.40429688 C-30.44444866 215.67271766 -34.93242178 213.11809438 -39.39794922 210.52636719 C-40.41381104 209.93267334 -41.42967285 209.33897949 -42.47631836 208.72729492 C-49.829599 204.43057001 -57.21542869 200.19309382 -64.61633301 195.97921753 C-68.71313571 193.64443297 -72.80416495 191.29953693 -76.89599609 188.95605469 C-79.11364832 187.68882484 -81.33363482 186.42566957 -83.55615234 185.16699219 C-86.59401907 183.44497285 -89.62186766 181.70649045 -92.64794922 179.96386719 C-93.53885254 179.4642749 -94.42975586 178.96468262 -95.34765625 178.44995117 C-100.74925027 175.31223736 -106.90913782 171.51340948 -108.83157825 165.18843555 C-109.28441662 162.97019378 -109.40153467 160.98237838 -109.40666199 158.72013855 C-109.41092697 157.8665123 -109.41519196 157.01288605 -109.41958618 156.13339233 C-109.419133 155.20499542 -109.41867981 154.27659851 -109.41821289 153.32006836 C-109.4215715 152.33586411 -109.42493011 151.35165985 -109.4283905 150.33763123 C-109.43789518 147.08151998 -109.43984345 143.8254602 -109.44091797 140.56933594 C-109.44413112 138.30495686 -109.44749524 136.04057798 -109.45100403 133.77619934 C-109.45699426 129.0274711 -109.45884406 124.27876105 -109.45825195 119.5300293 C-109.45815039 113.45046594 -109.47179694 107.37101953 -109.48902416 101.29148388 C-109.50015333 96.61342332 -109.50217087 91.93539094 -109.50164223 87.2573185 C-109.50282117 85.01627512 -109.50723816 82.775231 -109.51497459 80.53420067 C-109.52479186 77.39633418 -109.52188935 74.25872032 -109.51586914 71.12084961 C-109.52148865 70.19852539 -109.52710815 69.27620117 -109.53289795 68.32592773 C-109.47552782 56.53474703 -109.47552782 56.53474703 -105.54614258 52.05981445 C-99.24218597 47.51344768 -92.66305143 43.67121824 -85.83544922 39.96386719 C-83.69010165 38.78696861 -81.54556001 37.60859963 -79.40185547 36.42871094 C-78.36351563 35.85749512 -77.32517578 35.2862793 -76.25537109 34.69775391 C-72.69490208 32.7024223 -69.20425908 30.60621687 -65.71508789 28.48950195 C-61.41107762 25.91088218 -57.02502146 23.47815699 -52.64794922 21.02636719 C-43.05732394 15.63786892 -33.54325861 10.12822791 -24.07910156 4.52050781 C-23.12986816 3.96169922 -22.18063477 3.40289062 -21.20263672 2.82714844 C-20.36974121 2.33384033 -19.5368457 1.84053223 -18.67871094 1.33227539 C-12.1352497 -2.21968058 -6.98076039 -2.99025483 0 0 Z " fill="#46474F" transform="translate(186.27294921875,32.9736328125)"/>
<path d="M0 0 C3.69870269 1.62872697 6.97995097 3.42206007 9.20703125 6.8671875 C11.079419 11.9032649 10.52198959 17.34191544 8.9375 22.375 C6.02290154 26.32381082 2.7501236 28.47970635 -2.0234375 29.3828125 C-7.1758536 29.67892837 -10.16627405 28.31094514 -14 25 C-17.86946654 20.72322119 -18.74369507 17.08922441 -18.5234375 11.47265625 C-17.64074388 7.302917 -15.26375954 4.63496183 -12 2 C-8.1035797 -0.29610482 -4.44194004 -0.79377629 0 0 Z " fill="#585857" transform="translate(188,90)"/>
<path d="M0 0 C1.50564218 0.52577981 3.00558598 1.06810726 4.5 1.625 C10.09452497 3.55937812 14.04948597 2.88659729 19.4375 0.4375 C23.69738212 -1.2813998 26.45863788 -1.23901906 31 -1 C31.495 1.475 31.495 1.475 32 4 C28.70761942 5.75539702 25.36374755 7.38587943 22 9 C21.05930664 9.465271 21.05930664 9.465271 20.09960938 9.93994141 C9.4839485 15.11699921 1.87969033 17.04381769 -10 15 C-11.13050781 14.814375 -12.26101562 14.62875 -13.42578125 14.4375 C-14.27527344 14.293125 -15.12476563 14.14875 -16 14 C-16 14.66 -16 15.32 -16 16 C-18.31 16 -20.62 16 -23 16 C-23 10.72 -23 5.44 -23 0 C-19.41927083 0.03255208 -15.83854167 0.06510417 -12.2578125 0.09765625 C-1.06262378 -0.23793094 -1.06262378 -0.23793094 0 0 Z " fill="#555557" transform="translate(173,118)"/>
<path d="M0 0 C1.65 0 3.3 0 5 0 C5.33 0.66 5.66 1.32 6 2 C6.66 1.34 7.32 0.68 8 0 C13.0165166 -0.47325628 15.91526758 0.02928551 20 3 C20.5259375 2.2575 20.5259375 2.2575 21.0625 1.5 C23 0 23 0 26.375 -0.5 C30 0 30 0 32.70703125 1.85546875 C36.04359357 6.43116325 35.55284657 10.30671478 35.3125 15.8125 C35.28994141 16.79154297 35.26738281 17.77058594 35.24414062 18.77929688 C35.18539727 21.18777455 35.10332129 23.59309078 35 26 C33.68 26 32.36 26 31 26 C30.98018066 25.43490723 30.96036133 24.86981445 30.93994141 24.28759766 C30.84481764 21.73292003 30.73508942 19.17907459 30.625 16.625 C30.5940625 15.73554688 30.563125 14.84609375 30.53125 13.9296875 C30.49257812 13.07890625 30.45390625 12.228125 30.4140625 11.3515625 C30.36693115 10.17327881 30.36693115 10.17327881 30.31884766 8.97119141 C30.1600535 6.76997061 30.1600535 6.76997061 28 5 C25.5 4.66666667 25.5 4.66666667 23 5 C20.6031335 7.3968665 20.71718867 8.07028314 20.5859375 11.3515625 C20.54726562 12.20234375 20.50859375 13.053125 20.46875 13.9296875 C20.42234375 15.26386719 20.42234375 15.26386719 20.375 16.625 C20.33632812 17.5221875 20.29765625 18.419375 20.2578125 19.34375 C20.16340643 21.5622927 20.07783252 23.78082403 20 26 C18.68 26 17.36 26 16 26 C15.98541748 25.43490723 15.97083496 24.86981445 15.95581055 24.28759766 C15.88143942 21.73269981 15.78474758 19.17912502 15.6875 16.625 C15.66494141 15.73554688 15.64238281 14.84609375 15.61914062 13.9296875 C15.58369141 13.07890625 15.54824219 12.228125 15.51171875 11.3515625 C15.48553467 10.56604004 15.45935059 9.78051758 15.43237305 8.97119141 C15.15110403 6.59959844 15.15110403 6.59959844 12 5 C8.68913741 5.28274138 8.68913741 5.28274138 6 7 C5.84379445 8.41327947 5.74943827 9.8335459 5.68359375 11.25390625 C5.64169922 12.10791016 5.59980469 12.96191406 5.55664062 13.84179688 C5.49766602 15.18854492 5.49766602 15.18854492 5.4375 16.5625 C5.39431641 17.46419922 5.35113281 18.36589844 5.30664062 19.29492188 C5.20021858 21.52978485 5.09820012 23.76476308 5 26 C3.35 26 1.7 26 0 26 C0 17.42 0 8.84 0 0 Z " fill="#F3F3F4" transform="translate(177,162)"/>
<path d="M0 0 C8.91 0 17.82 0 27 0 C23.96907586 6.06184829 21.01906913 11.88132959 17.5 17.625 C17.11271729 18.26381104 16.72543457 18.90262207 16.32641602 19.56079102 C13.58997065 24.06501331 10.81774119 28.54615103 8 33 C13.94 33.33 19.88 33.66 26 34 C26 35.65 26 37.3 26 39 C17.09 39 8.18 39 -1 39 C5.75 26.625 5.75 26.625 8.4296875 22.11328125 C8.996875 21.15615234 9.5640625 20.19902344 10.1484375 19.21289062 C10.71820313 18.25576172 11.28796875 17.29863281 11.875 16.3125 C12.76445312 14.81299805 12.76445312 14.81299805 13.671875 13.28320312 C15.1128603 10.85444564 16.55618038 8.42707364 18 6 C12.06 5.67 6.12 5.34 0 5 C0 3.35 0 1.7 0 0 Z " fill="#F0F0F1" transform="translate(116,149)"/>
<path d="M0 0 C1.65 0 3.3 0 5 0 C5.33 6.93 5.66 13.86 6 21 C8.64 21 11.28 21 14 21 C15.9756562 18.03651571 16.26376859 17.31979627 16.4140625 13.98828125 C16.45273438 13.23095703 16.49140625 12.47363281 16.53125 11.69335938 C16.57765625 10.51483398 16.57765625 10.51483398 16.625 9.3125 C16.66367188 8.51521484 16.70234375 7.71792969 16.7421875 6.89648438 C16.83632494 4.93136525 16.91924632 2.9657146 17 1 C18.32 1 19.64 1 21 1 C21 9.25 21 17.5 21 26 C19.68 26 18.36 26 17 26 C16.67 25.01 16.34 24.02 16 23 C15.4740625 23.7425 15.4740625 23.7425 14.9375 24.5 C11.9298418 26.82850957 9.69312806 26.44572235 6 26 C1.40268964 23.20163717 1.40268964 23.20163717 0.37329102 20.12988281 C-0.01258783 17.92817776 -0.11361464 15.90605029 -0.09765625 13.671875 C-0.09282227 12.47304687 -0.09282227 12.47304687 -0.08789062 11.25 C-0.07951172 10.425 -0.07113281 9.6 -0.0625 8.75 C-0.05798828 7.90953125 -0.05347656 7.0690625 -0.04882812 6.203125 C-0.03707961 4.13538599 -0.01914522 2.06768376 0 0 Z " fill="#F3F3F4" transform="translate(148,162)"/>
<path d="M0 0 C2.31 0 4.62 0 7 0 C7 0.99 7 1.98 7 3 C7.99 2.67 8.98 2.34 10 2 C13.39178945 5.50120201 14.72429652 8.24707516 15.1015625 13.0078125 C14.93651005 16.24537978 13.78974286 18.34624334 12 21 C9.8125 22.875 9.8125 22.875 8 24 C6.68 23.34 5.36 22.68 4 22 C4.99 20.35 5.98 18.7 7 17 C5.081875 17.061875 5.081875 17.061875 3.125 17.125 C0.9453125 17.1953125 0.9453125 17.1953125 -1 17 C-1.66 16.34 -2.32 15.68 -3 15 C-2.625 11.375 -2.625 11.375 -2 8 C0.76264289 7.40267181 3.16032769 7 6 7 C5.67 5.68 5.34 4.36 5 3 C4.34 3 3.68 3 3 3 C3 3.66 3 4.32 3 5 C2.34 5 1.68 5 1 5 C0.67 3.35 0.34 1.7 0 0 Z " fill="#494A51" transform="translate(182,92)"/>
<path d="M0 0 C0.33 1.65 0.66 3.3 1 5 C-11.38539554 11.30483918 -11.38539554 11.30483918 -16 13 C-16.99 12.67 -17.98 12.34 -19 12 C-21.86539653 11.26474429 -24.73210232 10.53565414 -27.6015625 9.81640625 C-30 9 -30 9 -31 7 C-26.71 7.66 -22.42 8.32 -18 9 C-17.67 8.34 -17.34 7.68 -17 7 C-18.13888672 6.83564453 -18.13888672 6.83564453 -19.30078125 6.66796875 C-20.29464844 6.50941406 -21.28851563 6.35085937 -22.3125 6.1875 C-23.79169922 5.96126953 -23.79169922 5.96126953 -25.30078125 5.73046875 C-28.12699269 4.96563295 -29.1959128 4.24741238 -31 2 C-30.14728516 2.23396484 -30.14728516 2.23396484 -29.27734375 2.47265625 C-22.70872008 4.12851965 -17.89279608 4.31490731 -11.5625 1.4375 C-7.30261788 -0.2813998 -4.54136212 -0.23901906 0 0 Z " fill="#777162" transform="translate(204,117)"/>
<path d="M0 0 C1.32 0 2.64 0 4 0 C4.12397147 4.46564301 4.21450992 8.93036439 4.2746582 13.3972168 C4.29974109 14.91529801 4.3338166 16.43325918 4.37719727 17.95092773 C4.43813293 20.13815965 4.46626895 22.32379039 4.48828125 24.51171875 C4.51446533 25.82615967 4.54064941 27.14060059 4.56762695 28.49487305 C3.85945032 32.86790183 2.44308284 34.30653586 -1 37 C-3.6875 37.5 -3.6875 37.5 -6 37 C-6.66 36.01 -7.32 35.02 -8 34 C-6.75 32.5 -6.75 32.5 -5 31 C-3.68 31 -2.36 31 -1 31 C-0.67 20.77 -0.34 10.54 0 0 Z " fill="#FBFBFB" transform="translate(221,163)"/>
<path d="M0 0 C3.69870269 1.62872697 6.97995097 3.42206007 9.20703125 6.8671875 C11.079419 11.9032649 10.52198959 17.34191544 8.9375 22.375 C6.02290154 26.32381082 2.7501236 28.47970635 -2.0234375 29.3828125 C-7.1758536 29.67892837 -10.16627405 28.31094514 -14 25 C-17.86946654 20.72322119 -18.74369507 17.08922441 -18.5234375 11.47265625 C-17.64074388 7.302917 -15.26375954 4.63496183 -12 2 C-8.1035797 -0.29610482 -4.44194004 -0.79377629 0 0 Z M-14 5 C-15.88985147 9.15767324 -16.75163597 13.44665944 -17 18 C-15.40574416 21.69196088 -13.46311728 23.96287219 -10 26 C-6.3309231 27.06210121 -2.80710055 27.2538067 1 27 C1.66 26.34 2.32 25.68 3 25 C3.845625 24.29875 4.69125 23.5975 5.5625 22.875 C8.60277937 19.28902947 9.32791056 16.65450829 9 12 C7.49717203 7.94236447 6.61841259 6.41227506 3 4 C2.01 4.495 2.01 4.495 1 5 C0.67 4.01 0.34 3.02 0 2 C-7.57191036 1.44650375 -7.57191036 1.44650375 -14 5 Z " fill="#A18C69" transform="translate(188,90)"/>
<path d="M0 0 C1.65 0 3.3 0 5 0 C5 8.58 5 17.16 5 26 C3.35 26 1.7 26 0 26 C0 17.42 0 8.84 0 0 Z " fill="#E4E4E5" transform="translate(235,162)"/>
<path d="M0 0 C2.31 0 4.62 0 7 0 C7 4.29 7 8.58 7 13 C9.31 13 11.62 13 14 13 C14 13.33 14 13.66 14 14 C11.69 14 9.38 14 7 14 C7 14.66 7 15.32 7 16 C4.69 16 2.38 16 0 16 C0 10.72 0 5.44 0 0 Z " fill="#A18255" transform="translate(150,118)"/>
<path d="M0 0 C0.33 0.66 0.66 1.32 1 2 C1.66 2 2.32 2 3 2 C3 1.34 3 0.68 3 0 C3.66 0 4.32 0 5 0 C5.99 1.98 6.98 3.96 8 6 C4.7 5.67 1.4 5.34 -2 5 C-2.04241723 7.33294775 -2.04092937 9.66702567 -2 12 C-0.99163938 13.23267348 -0.99163938 13.23267348 1.06640625 13.09765625 C1.89011719 13.08605469 2.71382812 13.07445313 3.5625 13.0625 C4.38878906 13.05347656 5.21507812 13.04445313 6.06640625 13.03515625 C6.70449219 13.02355469 7.34257812 13.01195313 8 13 C7.01 14.98 6.02 16.96 5 19 C4.34 19 3.68 19 3 19 C3 18.01 3 17.02 3 16 C2.34 16 1.68 16 1 16 C0.67 16.99 0.34 17.98 0 19 C-0.33 18.01 -0.66 17.02 -1 16 C-1.70125 15.4225 -2.4025 14.845 -3.125 14.25 C-5 12 -5 12 -5 8.375 C-4 5 -4 5 -1.9375 3.5625 C-0.9784375 3.2840625 -0.9784375 3.2840625 0 3 C0 2.01 0 1.02 0 0 Z " fill="#D6CD8D" transform="translate(182,95)"/>
<path d="M0 0 C4.60394924 1.90480294 7.41837301 3.71557373 9.5 8.3125 C9.7475 9.6428125 9.7475 9.6428125 10 11 C9.01 11 8.02 11 7 11 C7.33 10.34 7.66 9.68 8 9 C7.34 8.67 6.68 8.34 6 8 C5.319375 7.2575 5.319375 7.2575 4.625 6.5 C2.77048751 4.78814231 1.45475499 4.42323362 -1 4 C-1 3.34 -1 2.68 -1 2 C-1.53625 2.144375 -2.0725 2.28875 -2.625 2.4375 C-6.42603327 3.33774472 -10.08875627 4 -14 4 C-9.53415062 0.4273205 -5.83280557 -1.25144149 0 0 Z " fill="#A2966F" transform="translate(188,90)"/>
<path d="M0 0 C0.66 1.32 1.32 2.64 2 4 C1.01 4 0.02 4 -1 4 C-0.67 4.99 -0.34 5.98 0 7 C-0.33 7.33 -0.66 7.66 -1 8 C-1.04092937 10.33297433 -1.04241723 12.66705225 -1 15 C-0.01 15.33 0.98 15.66 2 16 C3 17 3 17 4 19 C4.66 19.33 5.32 19.66 6 20 C7.0194119 20.98020375 8.02246356 21.97803008 9 23 C6.03517326 22.86210108 3.78765516 22.71055664 1.5234375 20.66796875 C-1.79874631 16.67551979 -3.15894056 14.23950547 -3.25 9.125 C-3.27578125 8.26132813 -3.3015625 7.39765625 -3.328125 6.5078125 C-2.94108924 3.54975351 -1.95124005 2.20798216 0 0 Z " fill="#BFB680" transform="translate(173,95)"/>
<path d="M0 0 C-4.85511756 3.95602172 -8.71925967 5.29212746 -15 5 C-14.34 4.67 -13.68 4.34 -13 4 C-13 3.34 -13 2.68 -13 2 C-8.11922548 -0.44038726 -5.47332932 -1.46845421 0 0 Z " fill="#7D7160" transform="translate(202,118)"/>
<path d="M0 0 C1.67542976 0.28604898 3.34385343 0.61781233 5 1 C5 2.32 5 3.64 5 5 C3.35 5.33 1.7 5.66 0 6 C-0.38218767 4.34385343 -0.71395102 2.67542976 -1 1 C-0.67 0.67 -0.34 0.34 0 0 Z " fill="#E4E4E5" transform="translate(221,149)"/>
<path d="M0 0 C2.0625 0.4375 2.0625 0.4375 4 1 C3.67 2.65 3.34 4.3 3 6 C1.68 5.67 0.36 5.34 -1 5 C-1 1 -1 1 0 0 Z " fill="#F3F4F4" transform="translate(236,149)"/>
<path d="M0 0 C-1 1.5 -1 1.5 -3 3 C-5.71846235 3.27345479 -8.25677199 3.13491285 -11 3 C-8.21756596 -1.17365106 -4.53441502 -0.22300402 0 0 Z " fill="#AA9F77" transform="translate(191,116)"/>
<path d="M0 0 C-1.375 2.5 -1.375 2.5 -3 5 C-3.66 5 -4.32 5 -5 5 C-5 4.01 -5 3.02 -5 2 C-5.99 1.67 -6.98 1.34 -8 1 C-8 0.67 -8 0.34 -8 0 C-2.25 -1.125 -2.25 -1.125 0 0 Z " fill="#ACA077" transform="translate(190,109)"/>
<path d="M0 0 C0.66 0 1.32 0 2 0 C2.99 1.98 3.98 3.96 5 6 C3.35 5.67 1.7 5.34 0 5 C0 4.34 0 3.68 0 3 C-0.66 2.67 -1.32 2.34 -2 2 C-1.34 2 -0.68 2 0 2 C0 1.34 0 0.68 0 0 Z " fill="#B2A577" transform="translate(185,95)"/>
</svg>
